<?xml version="1.0" encoding="utf-8"?>
<!-- Generator: Adobe Illustrator 21.0.0, SVG Export Plug-In . SVG Version: 6.00 Build 0)  -->
<svg version="1.1" id="Layer_1" xmlns="http://www.w3.org/2000/svg" xmlns:xlink="http://www.w3.org/1999/xlink" x="0px" y="0px"
	 viewBox="0 0 70 70" style="enable-background:new 0 0 70 70;" xml:space="preserve">
<style type="text/css">
	.st0{fill:#F3E205;stroke:#F3E207;stroke-miterlimit:10;}
	.st1{fill:#F3E205;}
	.st2{fill:#F3E205;stroke:#F3E206;stroke-miterlimit:10;}
	.st3{fill:none;}
	.st4{fill:#FFFFFF;}
	.st5{fill:#F3E205;stroke:#FFFFFF;stroke-width:0.75;stroke-miterlimit:10;}
	.st6{fill:none;stroke:#F3E205;stroke-linecap:round;stroke-miterlimit:10;}
</style>
<g>
	<g>
		<path class="st0" d="M6.6,45.4c-0.3,0-0.5-0.2-0.5-0.5V11.3c0-2,1.6-3.6,3.6-3.6h4.1c0.3,0,0.5,0.2,0.5,0.5c0,0.3-0.2,0.5-0.5,0.5
			H9.7c-1.4,0-2.6,1.2-2.6,2.6v33.7C7.1,45.2,6.9,45.4,6.6,45.4z"/>
		<path class="st0" d="M50.5,8.7H30c-0.8,0-1.5-0.2-1.5-0.5c0-0.3,0.7-0.5,1.5-0.5h20.4c0.8,0,1.5,0.2,1.5,0.5
			C51.9,8.4,51.3,8.7,50.5,8.7z"/>
		<path class="st0" d="M58.7,45.4c-0.3,0-0.5-0.2-0.5-0.5V11.3c0-1.4-1.1-2.6-2.6-2.6h-4.1c-0.3,0-0.5-0.2-0.5-0.5
			c0-0.3,0.2-0.5,0.5-0.5h4.1c2,0,3.6,1.6,3.6,3.6v33.7C59.2,45.2,59,45.4,58.7,45.4z"/>
		<path class="st0" d="M55.7,16.8c-0.3,0-0.5-0.2-0.5-0.5v-4.6h-3.6c-0.3,0-0.5-0.2-0.5-0.5s0.2-0.5,0.5-0.5h4.1
			c0.3,0,0.5,0.2,0.5,0.5v5.1C56.2,16.6,55.9,16.8,55.7,16.8z"/>
		<path class="st0" d="M52.1,11.7H30.2c-0.9,0-1.6-0.2-1.6-0.5s0.7-0.5,1.6-0.5h21.9c0.9,0,1.6,0.2,1.6,0.5S52.9,11.7,52.1,11.7z"/>
		<path class="st0" d="M55.7,42.4h-46c-0.3,0-0.5-0.2-0.5-0.5V11.2c0-0.3,0.2-0.5,0.5-0.5h4.1c0.3,0,0.5,0.2,0.5,0.5
			s-0.2,0.5-0.5,0.5h-3.6v29.6h45V30.6c0-0.3,0.2-0.5,0.5-0.5s0.5,0.2,0.5,0.5v11.2C56.2,42.1,55.9,42.4,55.7,42.4z"/>
		<path class="st0" d="M55.7,30.8c-0.3,0-0.5-0.6-0.5-1.3V16.8c0-0.7,0.2-1.3,0.5-1.3s0.5,0.6,0.5,1.3v12.7
			C56.2,30.3,55.9,30.8,55.7,30.8z"/>
		<path class="st0" d="M60.8,48.5H4.6c-2,0-3.6-1.6-3.6-3.6c0-0.3,0.2-0.5,0.5-0.5l25.5,0v1h-25c0.2,1.2,1.3,2,2.5,2h56.2
			c1.2,0,2.3-0.9,2.5-2l-25,0c-0.3,0-0.5-0.2-0.5-0.5c0-0.3,0.2-0.5,0.5-0.5h25.5c0.3,0,0.5,0.2,0.5,0.5
			C64.4,46.9,62.7,48.5,60.8,48.5z"/>
		<path class="st1" d="M37.3,46.5h-9.2c-0.8,0-1.5-0.7-1.5-1.5c0-0.3,0.2-0.5,0.5-0.5c0.3,0,0.5,0.2,0.5,0.5s0.2,0.5,0.5,0.5h9.2
			c0.3,0,0.5-0.2,0.5-0.5s0.2-0.5,0.5-0.5c0.3,0,0.5,0.2,0.5,0.5C38.8,45.8,38.1,46.5,37.3,46.5z"/>
		<path class="st2" d="M27.6,28.1H15.3c-1.1,0-2-0.9-2-2V3.5c0-1.1,0.9-2,2-2h12.3c1.1,0,2,0.9,2,2V26
			C29.6,27.1,28.7,28.1,27.6,28.1z M15.3,2.5c-0.6,0-1,0.5-1,1V26c0,0.6,0.5,1,1,1h12.3c0.6,0,1-0.5,1-1V3.5c0-0.6-0.5-1-1-1H15.3z"
			/>
		<path class="st2" d="M26,17.8h-9.2c-0.3,0-0.5-0.2-0.5-0.5v-4.1c0-0.3,0.2-0.5,0.5-0.5H26c0.3,0,0.5,0.2,0.5,0.5v4.1
			C26.5,17.6,26.3,17.8,26,17.8z M17.3,16.8h8.2v-3.1h-8.2V16.8z"/>
		<path class="st2" d="M51.6,24H32.2c-0.3,0-0.5-0.2-0.5-0.5c0-0.3,0.2-0.5,0.5-0.5h19.4c0.3,0,0.5,0.2,0.5,0.5
			C52.1,23.8,51.9,24,51.6,24z"/>
		<path class="st2" d="M44.4,25c-0.3,0-0.5-0.2-0.5-0.5v-2c0-0.3,0.2-0.5,0.5-0.5c0.3,0,0.5,0.2,0.5,0.5v2
			C44.9,24.8,44.7,25,44.4,25z"/>
		<path class="st2" d="M36.3,35.2H13.8c-0.3,0-0.5-0.2-0.5-0.5s0.2-0.5,0.5-0.5h22.5c0.3,0,0.5,0.2,0.5,0.5S36.5,35.2,36.3,35.2z"/>
		<path class="st2" d="M20.9,36.2c-0.3,0-0.5-0.2-0.5-0.5v-2c0-0.3,0.2-0.5,0.5-0.5c0.3,0,0.5,0.2,0.5,0.5v2
			C21.4,36,21.2,36.2,20.9,36.2z"/>
		<line class="st3" x1="44.3" y1="43.4" x2="47.9" y2="43.4"/>
		<line class="st3" x1="12.7" y1="5.1" x2="12.7" y2="13.9"/>
		<line class="st3" x1="30.1" y1="5.1" x2="30.1" y2="13.9"/>
	</g>
	<g>
		<path class="st4" d="M28.1,64.8h-4c-0.4,0-0.8-0.4-0.8-0.8v-9c0-0.4,0.4-0.8,0.8-0.8h4c0.4,0,0.8,0.4,0.8,0.8v9
			C28.9,64.5,28.5,64.8,28.1,64.8z"/>
		<path class="st4" d="M68.2,64.8h-4c-0.4,0-0.8-0.4-0.8-0.8v-9c0-0.4,0.4-0.8,0.8-0.8h4c0.4,0,0.8,0.4,0.8,0.8v9
			C69,64.5,68.7,64.8,68.2,64.8z"/>
		<g>
			<path class="st1" d="M30.2,49.9c-0.7,0-1.4,0.3-1.9,0.8c-0.5,0.5-0.8,1.2-0.8,1.9v2.3h-2.8c-0.4,0-0.7,0.3-0.7,0.7v7.2
				c0,0.4,0.3,0.7,0.7,0.7h2.8v0.7c0,1.3,0.9,2.5,2.3,2.7l8.9,1.5c0.2,0,0.3,0,0.5,0c0.9,0,1.8-0.5,2.3-1.2l2.2-3.3
				c0.6-0.9,1.6-1.4,2.6-1.4c1,0,2,0.5,2.6,1.4l2.2,3.3c0.6,0.9,1.7,1.4,2.7,1.2l8.9-1.5c1.3-0.2,2.3-1.4,2.3-2.7v-0.7h2.7
				c0.4,0,0.7-0.3,0.7-0.7v-7.2c0-0.4-0.3-0.7-0.7-0.7h-2.7v-2.3c0-1.5-1.3-2.7-2.8-2.7L30.2,49.9z"/>
			<path class="st4" d="M30.2,51.2h32c0.7,0,1.4,0.6,1.4,1.3v2.8c0,0,0,0.1,0,0.1s0,0.1,0,0.1v6.9c0,0,0,0.1,0,0.1s0,0.1,0,0.1v1.3
				c0,0.7-0.5,1.2-1.1,1.3L53.5,67c-0.5,0.1-1.1-0.1-1.3-0.6l-2.2-3.3c-0.8-1.3-2.2-2-3.8-2c-1.5,0-2.9,0.8-3.8,2l-2.2,3.3
				c-0.3,0.4-0.8,0.7-1.3,0.6l-8.9-1.5c-0.6-0.1-1.1-0.7-1.1-1.3V52.6c0-0.3,0.1-0.7,0.4-0.9C29.5,51.4,29.8,51.2,30.2,51.2
				L30.2,51.2z"/>
		</g>
		<path class="st5" d="M49.7,49.5h-7l1-3.1c0.2-0.6,0.7-0.9,1.3-0.9h2.4c0.6,0,1.1,0.4,1.3,0.9L49.7,49.5z"/>
		<line class="st6" x1="44.2" y1="54.5" x2="48.1" y2="54.5"/>
	</g>
</g>
</svg>
