<?xml version="1.0" encoding="utf-8"?>
<!-- Generator: Adobe Illustrator 21.0.0, SVG Export Plug-In . SVG Version: 6.00 Build 0)  -->
<svg version="1.1" id="Layer_1" xmlns="http://www.w3.org/2000/svg" xmlns:xlink="http://www.w3.org/1999/xlink" x="0px" y="0px"
	 viewBox="0 0 70 70" style="enable-background:new 0 0 70 70;" xml:space="preserve">
<style type="text/css">
	.st0{fill:#F3E207;}
</style>
<path class="st0" d="M40,28c3,0,5.4-2.4,5.4-5.4S43,17.2,40,17.2c-3,0-5.4,2.4-5.4,5.4S37,28,40,28z M40,19.4c1.8,0,3.2,1.5,3.2,3.2
	s-1.5,3.2-3.2,3.2s-3.2-1.5-3.2-3.2S38.2,19.4,40,19.4z"/>
<path class="st0" d="M26.7,50.9c3.8-2.6,6.1-6.9,6.1-11.5c0-3.8-1.5-7.4-4.3-10.1c-2.8-2.7-6.4-4.1-10.3-3.9
	C11,25.6,4.9,31.7,4.8,39c-0.1,4.7,2.2,9.2,6,11.9c0.3,0.2,0.4,0.5,0.4,0.9v3.6c-0.7,0.6-1.1,1.4-1.1,2.4c0,1.1,0.6,2.1,1.5,2.7
	c-0.2,0.4-0.4,0.9-0.4,1.5v0.3c0,1.4,1,2.6,2.3,3c0.5,2.5,2.7,4.4,5.3,4.4s4.8-1.9,5.3-4.4c1.3-0.4,2.3-1.5,2.3-3v-0.3
	c0-0.5-0.1-1-0.4-1.5c0.9-0.6,1.5-1.6,1.5-2.7c0-1-0.4-1.8-1.1-2.4v-3.6C26.3,51.4,26.5,51,26.7,50.9z M18.8,67.4
	c-1.4,0-2.6-0.9-3-2.2h6.1C21.4,66.5,20.2,67.4,18.8,67.4z M24.2,62.1c0,0.5-0.4,0.9-0.9,0.9h-9c-0.5,0-0.9-0.4-0.9-0.9v-0.3
	c0-0.5,0.4-0.9,0.9-0.9h9c0.5,0,0.9,0.4,0.9,0.9V62.1z M24.2,58.7H13.4c-0.6,0-1.1-0.5-1.1-1.1s0.5-1.1,1.1-1.1h10.8
	c0.6,0,1.1,0.5,1.1,1.1S24.8,58.7,24.2,58.7z M17.7,40.2h2.2c1.2,0,2.2-1,2.2-2.2v-3.4c1.3,1,2.2,2.7,2.2,4.5c0,2.4-1.4,4.5-3.6,5.3
	c-0.4,0.2-0.7,0.6-0.7,1v9h-2.2v-9c0-0.5-0.3-0.9-0.7-1c-1.8-0.6-3.1-2.2-3.5-4.1c-0.4-2.2,0.4-4.4,2-5.6V38
	C15.5,39.2,16.5,40.2,17.7,40.2z M25.5,49.1c-0.8,0.6-1.3,1.6-1.3,2.6v2.7H22v-8.3c2.6-1.3,4.3-4,4.3-7c0-3.3-2-6.2-5-7.3
	c-0.3-0.1-0.7-0.1-1,0.1c-0.3,0.2-0.5,0.5-0.5,0.9v5.2l-2.2,0v-5.2c0-0.4-0.2-0.7-0.5-0.9c-0.3-0.2-0.7-0.2-1-0.1
	c-3.6,1.3-5.6,5-4.9,8.9c0.5,2.4,2,4.4,4.2,5.4v8.3h-2.2v-2.7c0-1.1-0.5-2-1.4-2.6c-3.3-2.3-5.2-6-5.1-10
	c0.1-6.2,5.3-11.3,11.4-11.6c3.3-0.1,6.4,1.1,8.7,3.3c2.3,2.3,3.6,5.3,3.6,8.6C30.6,43.2,28.7,46.9,25.5,49.1z"/>
<path class="st0" d="M29.2,25.8h1.6c0.1,0.3,0.2,0.6,0.4,0.9l-1.2,1.2c-0.4,0.4-0.4,1.1,0,1.5l3.1,3.1c0.4,0.4,1.1,0.4,1.5,0
	l1.2-1.2c0.3,0.1,0.6,0.3,0.9,0.4v1.6c0,0.6,0.5,1.1,1.1,1.1h4.3c0.6,0,1.1-0.5,1.1-1.1v-1.6c0.3-0.1,0.6-0.2,0.9-0.4l1.2,1.2
	c0.4,0.4,1.1,0.4,1.5,0l3.1-3.1c0.4-0.4,0.4-1.1,0-1.5l-1.2-1.2c0.1-0.3,0.3-0.6,0.4-0.9h1.6c0.6,0,1.1-0.5,1.1-1.1v-4.3
	c0-0.6-0.5-1.1-1.1-1.1h-1.6c-0.1-0.3-0.2-0.6-0.4-0.9l1.2-1.2c0.4-0.4,0.4-1.1,0-1.5l-3.1-3.1c-0.4-0.4-1.1-0.4-1.5,0l-1.2,1.2
	c-0.3-0.1-0.6-0.3-0.9-0.4v-1.6c0-0.6-0.5-1.1-1.1-1.1h-4.3c-0.6,0-1.1,0.5-1.1,1.1v1.6c-0.3,0.1-0.6,0.2-0.9,0.4l-1.2-1.2
	c-0.4-0.4-1.1-0.4-1.5,0l-3.1,3.1c-0.4,0.4-0.4,1.1,0,1.5l1.2,1.2c-0.1,0.3-0.3,0.6-0.4,0.9h-1.6c-0.6,0-1.1,0.5-1.1,1.1v4.3
	C28.1,25.4,28.6,25.8,29.2,25.8z M30.3,21.5h1.4c0.5,0,0.9-0.3,1-0.8c0.2-0.7,0.4-1.3,0.8-1.9c0.3-0.4,0.2-1-0.2-1.3l-1-1l1.5-1.5
	l1,1c0.3,0.3,0.9,0.4,1.3,0.2c0.6-0.4,1.3-0.6,1.9-0.8c0.5-0.1,0.8-0.6,0.8-1v-1.4h2.2v1.4c0,0.5,0.3,0.9,0.8,1
	c0.7,0.2,1.3,0.4,1.9,0.8c0.4,0.2,1,0.2,1.3-0.2l1-1l1.5,1.5l-1,1c-0.3,0.3-0.4,0.9-0.2,1.3c0.4,0.6,0.6,1.3,0.8,1.9
	c0.1,0.5,0.6,0.8,1,0.8h1.4v2.2h-1.4c-0.5,0-0.9,0.3-1,0.8c-0.2,0.7-0.4,1.3-0.8,1.9c-0.3,0.4-0.2,1,0.2,1.3l1,1l-1.5,1.5l-1-1
	c-0.3-0.3-0.9-0.4-1.3-0.2c-0.6,0.4-1.3,0.6-1.9,0.8c-0.5,0.1-0.8,0.6-0.8,1v1.4h-2.2V31c0-0.5-0.3-0.9-0.8-1
	c-0.7-0.2-1.3-0.4-1.9-0.8c-0.4-0.3-1-0.2-1.3,0.2l-1,1l-1.5-1.5l1-1c0.3-0.3,0.4-0.9,0.2-1.3c-0.4-0.6-0.6-1.3-0.8-1.9
	c-0.1-0.5-0.6-0.8-1-0.8h-1.4V21.5z"/>
<path class="st0" d="M53.4,37.2c-3,0-5.4,2.4-5.4,5.4c0,3,2.4,5.4,5.4,5.4c3,0,5.4-2.4,5.4-5.4C58.8,39.6,56.4,37.2,53.4,37.2z
	 M53.4,45.8c-1.8,0-3.2-1.5-3.2-3.2c0-1.8,1.5-3.2,3.2-3.2c1.8,0,3.2,1.5,3.2,3.2C56.6,44.3,55.2,45.8,53.4,45.8z"/>
<path class="st0" d="M64.2,39.3h-1.6c-0.1-0.3-0.2-0.6-0.4-0.9l1.2-1.2c0.4-0.4,0.4-1.1,0-1.5l-3.1-3.1c-0.4-0.4-1.1-0.4-1.5,0
	l-1.2,1.2c-0.3-0.1-0.6-0.3-0.9-0.4v-1.6c0-0.6-0.5-1.1-1.1-1.1h-4.3c-0.6,0-1.1,0.5-1.1,1.1v1.6c-0.3,0.1-0.6,0.2-0.9,0.4L48,32.6
	c-0.4-0.4-1.1-0.4-1.5,0l-3.1,3.1c-0.4,0.4-0.4,1.1,0,1.5l1.2,1.2c-0.1,0.3-0.3,0.6-0.4,0.9h-1.6c-0.6,0-1.1,0.5-1.1,1.1v4.3
	c0,0.6,0.5,1.1,1.1,1.1h1.6c0.1,0.3,0.2,0.6,0.4,0.9l-1.2,1.2c-0.4,0.4-0.4,1.1,0,1.5l3.1,3.1c0.4,0.4,1.1,0.4,1.5,0l1.2-1.2
	c0.3,0.1,0.6,0.3,0.9,0.4v1.6c0,0.6,0.5,1.1,1.1,1.1h4.3c0.6,0,1.1-0.5,1.1-1.1v-1.6c0.3-0.1,0.6-0.2,0.9-0.4l1.2,1.2
	c0.4,0.4,1.1,0.4,1.5,0l3.1-3.1c0.4-0.4,0.4-1.1,0-1.5l-1.2-1.2c0.1-0.3,0.3-0.6,0.4-0.9h1.6c0.6,0,1.1-0.5,1.1-1.1v-4.3
	C65.2,39.8,64.8,39.3,64.2,39.3z M63.1,43.6h-1.4c-0.5,0-0.9,0.3-1,0.8c-0.2,0.7-0.4,1.3-0.8,1.9c-0.3,0.4-0.2,1,0.2,1.3l1,1
	l-1.5,1.5l-1-1c-0.3-0.3-0.9-0.4-1.3-0.2c-0.6,0.4-1.3,0.6-1.9,0.8c-0.5,0.1-0.8,0.6-0.8,1v1.4h-2.2v-1.4c0-0.5-0.3-0.9-0.8-1
	c-0.7-0.2-1.3-0.4-1.9-0.8c-0.4-0.3-1-0.2-1.3,0.2l-1,1l-1.5-1.5l1-1c0.3-0.3,0.4-0.9,0.2-1.3c-0.4-0.6-0.6-1.3-0.8-1.9
	c-0.1-0.5-0.6-0.8-1-0.8h-1.4v-2.2H45c0.5,0,0.9-0.3,1-0.8c0.2-0.7,0.4-1.3,0.8-1.9c0.3-0.4,0.2-1-0.2-1.3l-1-1l1.5-1.5l1,1
	c0.3,0.3,0.9,0.4,1.3,0.2c0.6-0.4,1.3-0.6,1.9-0.8c0.5-0.1,0.8-0.6,0.8-1v-1.4h2.2v1.4c0,0.5,0.3,0.9,0.8,1c0.7,0.2,1.3,0.4,1.9,0.8
	c0.4,0.2,1,0.2,1.3-0.2l1-1l1.5,1.5l-1,1c-0.3,0.3-0.4,0.9-0.2,1.3c0.4,0.6,0.6,1.3,0.8,1.9c0.1,0.5,0.6,0.8,1,0.8h1.4V43.6z"/>
<path class="st0" d="M56,16.8c1.7,0,3.1-1.4,3.1-3.1s-1.4-3.1-3.1-3.1c-1.7,0-3.1,1.4-3.1,3.1S54.3,16.8,56,16.8z M56,11.7
	c1,0,1.9,0.8,1.9,1.9S57,15.5,56,15.5s-1.9-0.8-1.9-1.9S54.9,11.7,56,11.7z"/>
<path class="st0" d="M49.7,15.5h1c0.1,0.2,0.1,0.4,0.2,0.5l-0.7,0.7c-0.2,0.2-0.2,0.6,0,0.9l1.8,1.8c0.2,0.2,0.6,0.2,0.9,0l0.7-0.7
	c0.2,0.1,0.4,0.2,0.5,0.2v1c0,0.3,0.3,0.6,0.6,0.6h2.5c0.3,0,0.6-0.3,0.6-0.6v-1c0.2-0.1,0.4-0.1,0.5-0.2l0.7,0.7
	c0.2,0.2,0.6,0.2,0.9,0l1.8-1.8c0.2-0.2,0.2-0.6,0-0.9L61.1,16c0.1-0.2,0.2-0.4,0.2-0.5h1c0.3,0,0.6-0.3,0.6-0.6v-2.5
	c0-0.3-0.3-0.6-0.6-0.6h-1c-0.1-0.2-0.1-0.4-0.2-0.5l0.7-0.7c0.2-0.2,0.2-0.6,0-0.9L60,7.8c-0.2-0.2-0.6-0.2-0.9,0l-0.7,0.7
	c-0.2-0.1-0.4-0.2-0.5-0.2v-1c0-0.3-0.3-0.6-0.6-0.6h-2.5c-0.3,0-0.6,0.3-0.6,0.6v1c-0.2,0.1-0.4,0.1-0.5,0.2l-0.7-0.7
	c-0.2-0.2-0.6-0.2-0.9,0l-1.8,1.8c-0.2,0.2-0.2,0.6,0,0.9l0.7,0.7c-0.1,0.2-0.2,0.4-0.2,0.5h-1c-0.3,0-0.6,0.3-0.6,0.6v2.5
	C49.1,15.2,49.3,15.5,49.7,15.5z M50.3,13h0.8c0.3,0,0.5-0.2,0.6-0.5c0.1-0.4,0.3-0.8,0.5-1.1c0.1-0.2,0.1-0.6-0.1-0.8l-0.6-0.6
	l0.9-0.9L53,9.7c0.2,0.2,0.5,0.2,0.8,0.1c0.4-0.2,0.7-0.4,1.1-0.5c0.3-0.1,0.5-0.3,0.5-0.6V7.9h1.3v0.8c0,0.3,0.2,0.5,0.5,0.6
	c0.4,0.1,0.8,0.3,1.1,0.5c0.2,0.1,0.6,0.1,0.8-0.1l0.6-0.6l0.9,0.9l-0.6,0.6c-0.2,0.2-0.2,0.5-0.1,0.8c0.2,0.4,0.4,0.7,0.5,1.1
	c0.1,0.3,0.3,0.5,0.6,0.5h0.8v1.3h-0.8c-0.3,0-0.5,0.2-0.6,0.5c-0.1,0.4-0.3,0.8-0.5,1.1c-0.1,0.2-0.1,0.6,0.1,0.8l0.6,0.6l-0.9,0.9
	L59,17.5c-0.2-0.2-0.5-0.2-0.8-0.1c-0.4,0.2-0.7,0.4-1.1,0.5c-0.3,0.1-0.5,0.3-0.5,0.6v0.8h-1.3v-0.8c0-0.3-0.2-0.5-0.5-0.6
	c-0.4-0.1-0.8-0.3-1.1-0.5c-0.2-0.1-0.6-0.1-0.8,0.1l-0.6,0.6l-0.9-0.9l0.6-0.6c0.2-0.2,0.2-0.5,0.1-0.8c-0.2-0.4-0.4-0.7-0.5-1.1
	c-0.1-0.3-0.3-0.5-0.6-0.5h-0.8V13z"/>
<path class="st0" d="M48.6,7c1.2-0.3,1.9-1.4,1.6-2.6c-0.3-1.2-1.4-1.9-2.6-1.6S45.7,4.3,46,5.4C46.2,6.6,47.4,7.3,48.6,7z
	 M47.8,3.7c0.7-0.2,1.4,0.3,1.5,1c0.2,0.7-0.3,1.4-1,1.5c-0.7,0.2-1.4-0.3-1.5-1C46.6,4.5,47.1,3.8,47.8,3.7z"/>
<path class="st0" d="M44.2,7.2L44.8,7c0.1,0.1,0.2,0.2,0.2,0.3l-0.3,0.6c-0.1,0.2-0.1,0.5,0.1,0.6l1.5,0.9c0.2,0.1,0.5,0.1,0.6-0.1
	l0.3-0.6c0.1,0,0.3,0.1,0.4,0.1l0.2,0.6c0.1,0.2,0.3,0.4,0.5,0.3L50,9.3c0.2-0.1,0.4-0.3,0.3-0.5l-0.2-0.6c0.1-0.1,0.2-0.2,0.3-0.2
	L51,8.3c0.2,0.1,0.5,0.1,0.6-0.1l0.9-1.5c0.1-0.2,0.1-0.5-0.1-0.6l-0.6-0.3c0-0.1,0.1-0.3,0.1-0.4l0.6-0.2c0.2-0.1,0.4-0.3,0.3-0.5
	L52.5,3c-0.1-0.2-0.3-0.4-0.5-0.3l-0.6,0.2c-0.1-0.1-0.2-0.2-0.2-0.3L51.4,2c0.1-0.2,0.1-0.5-0.1-0.6l-1.5-0.9
	c-0.2-0.1-0.5-0.1-0.6,0.1l-0.3,0.6c-0.1,0-0.3,0-0.4-0.1l-0.2-0.6c-0.1-0.2-0.3-0.4-0.5-0.3l-1.7,0.4c-0.2,0.1-0.4,0.3-0.3,0.5
	L46,1.7c-0.1,0.1-0.2,0.2-0.3,0.2l-0.6-0.3c-0.2-0.1-0.5-0.1-0.6,0.1l-0.9,1.5c-0.1,0.2-0.1,0.5,0.1,0.6l0.6,0.3
	c0,0.1,0,0.3-0.1,0.4l-0.6,0.2c-0.2,0.1-0.4,0.3-0.3,0.5l0.4,1.7C43.7,7.1,44,7.2,44.2,7.2z M44.2,5.4l0.5-0.1
	c0.2,0,0.3-0.2,0.3-0.4c0-0.3,0.1-0.6,0.1-0.8c0.1-0.2,0-0.4-0.2-0.5l-0.5-0.3L45,2.5l0.5,0.3c0.2,0.1,0.4,0.1,0.5-0.1
	c0.2-0.2,0.4-0.4,0.7-0.5c0.2-0.1,0.3-0.3,0.2-0.5l-0.1-0.5l0.8-0.2l0.1,0.5c0,0.2,0.2,0.3,0.4,0.3c0.3,0,0.6,0.1,0.8,0.1
	c0.2,0.1,0.4,0,0.5-0.2l0.3-0.5l0.7,0.5l-0.3,0.5c-0.1,0.2-0.1,0.4,0.1,0.5c0.2,0.2,0.4,0.4,0.5,0.7c0.1,0.2,0.3,0.3,0.5,0.2
	l0.5-0.1l0.2,0.8l-0.5,0.1c-0.2,0-0.3,0.2-0.3,0.4c0,0.3-0.1,0.6-0.1,0.8c-0.1,0.2,0,0.4,0.2,0.5l0.5,0.3l-0.5,0.7L50.7,7
	c-0.2-0.1-0.4-0.1-0.5,0.1c-0.2,0.2-0.4,0.4-0.7,0.5c-0.2,0.1-0.3,0.3-0.2,0.5l0.1,0.5l-0.8,0.2l-0.1-0.5c0-0.2-0.2-0.3-0.4-0.3
	c-0.3,0-0.6-0.1-0.8-0.1c-0.2-0.1-0.4,0-0.5,0.2l-0.3,0.5L45.7,8L46,7.5C46.1,7.4,46,7.2,45.9,7c-0.2-0.2-0.4-0.4-0.5-0.7
	c-0.1-0.2-0.3-0.3-0.5-0.2l-0.5,0.1L44.2,5.4z"/>
</svg>
