<?xml version="1.0" encoding="utf-8"?>
<!-- Generator: Adobe Illustrator 21.0.0, SVG Export Plug-In . SVG Version: 6.00 Build 0)  -->
<svg version="1.1" id="Layer_1" xmlns="http://www.w3.org/2000/svg" xmlns:xlink="http://www.w3.org/1999/xlink" x="0px" y="0px"
	 viewBox="0 0 70 70" style="enable-background:new 0 0 70 70;" xml:space="preserve">
<style type="text/css">
	.st0{fill:#F3E207;stroke:#F3E207;stroke-width:0.5;stroke-miterlimit:10;}
	.st1{fill:none;stroke:#F3E207;stroke-width:2;stroke-miterlimit:10;}
</style>
<g>
	<path class="st0" d="M64.8,68.6H5.2c-0.4,0-0.6-0.3-0.6-0.7V57.3c0-0.4,0.3-0.7,0.6-0.7h59.5c0.4,0,0.6,0.3,0.6,0.7v10.6
		C65.3,68.3,65,68.6,64.8,68.6z M5.9,67.4h58.2V58H5.9V67.4L5.9,67.4z"/>
</g>
<g>
	<path class="st0" d="M9.3,68.6c-0.4,0-0.6-0.3-0.6-0.7v-4.4c0-0.4,0.3-0.7,0.6-0.7c0.4,0,0.6,0.3,0.6,0.7v4.4
		C9.9,68.3,9.7,68.6,9.3,68.6z"/>
</g>
<g>
	<path class="st0" d="M12.9,68.6c-0.4,0-0.6-0.3-0.6-0.7v-6.5c0-0.4,0.3-0.7,0.6-0.7s0.6,0.3,0.6,0.7v6.5
		C13.6,68.3,13.3,68.6,12.9,68.6z"/>
</g>
<g>
	<path class="st0" d="M16.2,68.6c-0.4,0-0.6-0.3-0.6-0.7v-4.4c0-0.4,0.3-0.7,0.6-0.7c0.4,0,0.6,0.3,0.6,0.7v4.4
		C16.8,68.3,16.5,68.6,16.2,68.6z"/>
</g>
<g>
	<path class="st0" d="M19.8,68.6c-0.4,0-0.6-0.3-0.6-0.7v-6.5c0-0.4,0.3-0.7,0.6-0.7c0.4,0,0.6,0.3,0.6,0.7v6.5
		C20.4,68.3,20.2,68.6,19.8,68.6z"/>
</g>
<g>
	<path class="st0" d="M23,68.6c-0.4,0-0.6-0.3-0.6-0.7v-4.4c0-0.4,0.3-0.7,0.6-0.7s0.6,0.3,0.6,0.7v4.4C23.7,68.3,23.4,68.6,23,68.6
		z"/>
</g>
<g>
	<path class="st0" d="M26.7,68.6c-0.4,0-0.6-0.3-0.6-0.7v-6.5c0-0.4,0.3-0.7,0.6-0.7s0.6,0.3,0.6,0.7v6.5
		C27.3,68.3,27.1,68.6,26.7,68.6z"/>
</g>
<g>
	<path class="st0" d="M29.9,68.6c-0.4,0-0.6-0.3-0.6-0.7v-4.4c0-0.4,0.3-0.7,0.6-0.7s0.6,0.3,0.6,0.7v4.4
		C30.6,68.3,30.3,68.6,29.9,68.6z"/>
</g>
<g>
	<path class="st0" d="M33.3,68.6c-0.4,0-0.6-0.3-0.6-0.7v-6.5c0-0.4,0.3-0.7,0.6-0.7S34,61,34,61.4v6.5C34,68.3,33.7,68.6,33.3,68.6
		z"/>
</g>
<g>
	<path class="st0" d="M36.8,68.6c-0.4,0-0.6-0.3-0.6-0.7v-4.4c0-0.4,0.3-0.7,0.6-0.7s0.6,0.3,0.6,0.7v4.4
		C37.5,68.3,37.2,68.6,36.8,68.6z"/>
</g>
<g>
	<path class="st0" d="M40.2,68.6c-0.4,0-0.6-0.3-0.6-0.7v-6.5c0-0.4,0.3-0.7,0.6-0.7s0.6,0.3,0.6,0.7v6.5
		C40.8,68.3,40.6,68.6,40.2,68.6z"/>
</g>
<g>
	<path class="st0" d="M43.7,68.6c-0.4,0-0.6-0.3-0.6-0.7v-4.4c0-0.4,0.3-0.7,0.6-0.7s0.6,0.3,0.6,0.7v4.4
		C44.4,68.3,44,68.6,43.7,68.6z"/>
</g>
<g>
	<path class="st0" d="M47.1,68.6c-0.4,0-0.6-0.3-0.6-0.7v-6.5c0-0.4,0.3-0.7,0.6-0.7s0.6,0.3,0.6,0.7v6.5
		C47.7,68.3,47.5,68.6,47.1,68.6z"/>
</g>
<g>
	<path class="st0" d="M50.6,68.6c-0.4,0-0.6-0.3-0.6-0.7v-4.4c0-0.4,0.3-0.7,0.6-0.7s0.6,0.3,0.6,0.7v4.4
		C51.1,68.3,50.9,68.6,50.6,68.6z"/>
</g>
<g>
	<path class="st0" d="M54,68.6c-0.4,0-0.6-0.3-0.6-0.7v-6.5c0-0.4,0.3-0.7,0.6-0.7c0.4,0,0.6,0.3,0.6,0.7v6.5
		C54.6,68.3,54.4,68.6,54,68.6z"/>
</g>
<g>
	<path class="st0" d="M57.5,68.6c-0.4,0-0.6-0.3-0.6-0.7v-4.4c0-0.4,0.3-0.7,0.6-0.7c0.4,0,0.6,0.3,0.6,0.7v4.4
		C58,68.3,57.7,68.6,57.5,68.6z"/>
</g>
<g>
	<path class="st0" d="M60.9,68.6c-0.4,0-0.6-0.3-0.6-0.7v-6.5c0-0.4,0.3-0.7,0.6-0.7s0.6,0.3,0.6,0.7v6.5
		C61.5,68.3,61.3,68.6,60.9,68.6z"/>
</g>
<g>
	<path class="st0" d="M58.9,55H3.1c-0.4,0-0.6-0.3-0.6-0.7V3.1c0-0.9,0.5-1.4,1.2-1.4h55c4.8,0,8.8,4,8.8,8.8v35.8
		C67.6,51.1,63.7,55,58.9,55z M3.7,53.7h55.2c4.2,0,7.5-3.4,7.5-7.6V10.4c0-4-3.5-7.6-7.7-7.6h-55c0,0,0,0.1,0,0.3v50.5H3.7z"/>
</g>
<g>
	<path class="st0" d="M61.1,49.5H19.3c-0.4,0-0.6-0.3-0.6-0.7V8.7c0-0.4,0.3-0.7,0.6-0.7h41.9c0.4,0,0.6,0.3,0.6,0.7v40.1
		C61.8,49.1,61.5,49.5,61.1,49.5z M19.9,48.2h40.7V9.4H19.9V48.2L19.9,48.2z"/>
</g>
<g>
	<path class="st0" d="M15.2,18.1H5.5c-0.4,0-0.6-0.3-0.6-0.7v-5.2c0-0.4,0.3-0.7,0.6-0.7h9.7c0.4,0,0.6,0.3,0.6,0.7v5.2
		C15.9,17.9,15.6,18.1,15.2,18.1z M6.1,16.8h8.4v-4H6.1V16.8z"/>
</g>
<g>
	<path class="st0" d="M15.2,28.8H5.5c-0.4,0-0.6-0.3-0.6-0.7v-5.5c0-0.4,0.3-0.7,0.6-0.7h9.7c0.4,0,0.6,0.3,0.6,0.7v5.5
		C15.9,28.6,15.6,28.8,15.2,28.8z M6.1,27.7h8.4v-4.3H6.1V27.7z"/>
</g>
<g>
	<path class="st0" d="M52.3,29.5H41.8c-0.4,0-0.6-0.3-0.6-0.7c0-0.4,0.3-0.7,0.6-0.7h10.5c0.4,0,0.6,0.3,0.6,0.7
		C52.9,29.2,52.7,29.5,52.3,29.5z"/>
</g>
<g>
	<path class="st0" d="M38.5,29.5H28c-0.4,0-0.6-0.3-0.6-0.7c0-0.4,0.3-0.7,0.6-0.7h10.5c0.4,0,0.6,0.3,0.6,0.7
		C39.2,29.2,38.9,29.5,38.5,29.5z"/>
</g>
<g>
	<path class="st0" d="M40.2,41.5c-0.4,0-0.6-0.3-0.6-0.7V30.5c0-0.4,0.3-0.7,0.6-0.7s0.6,0.3,0.6,0.7v10.3
		C40.7,41.3,40.5,41.5,40.2,41.5z"/>
</g>
<g>
	<path class="st0" d="M40.2,27.7c-0.4,0-0.6-0.3-0.6-0.7V16.7c0-0.4,0.3-0.7,0.6-0.7s0.6,0.3,0.6,0.7V27
		C40.7,27.4,40.5,27.7,40.2,27.7z"/>
</g>
<g>
	<path class="st0" d="M41.8,31.1h-3.2c-0.4,0-0.6-0.3-0.6-0.7V27c0-0.4,0.3-0.7,0.6-0.7h3.2c0.4,0,0.6,0.3,0.6,0.7v3.4
		C42.4,30.8,42.1,31.1,41.8,31.1z M39.2,29.9h2.1v-2.2h-2.1V29.9z"/>
</g>
<g>
	<path class="st0" d="M55.7,31.1h-3.4c-0.4,0-0.6-0.3-0.6-0.7V27c0-0.4,0.3-0.7,0.6-0.7h3.4c0.4,0,0.6,0.3,0.6,0.7v3.4
		C56.3,30.8,56.1,31.1,55.7,31.1z M52.9,29.9h2.2v-2.2h-2.2V29.9z"/>
</g>
<g>
	<path class="st0" d="M41.8,44.9h-3.2c-0.4,0-0.6-0.3-0.6-0.7v-3.4c0-0.4,0.3-0.7,0.6-0.7h3.2c0.4,0,0.6,0.3,0.6,0.7v3.4
		C42.4,44.7,42.1,44.9,41.8,44.9z M39.2,43.7h2.1v-2.2h-2.1V43.7z"/>
</g>
<g>
	<path class="st0" d="M28,31.1h-3.4c-0.4,0-0.6-0.3-0.6-0.7V27c0-0.4,0.3-0.7,0.6-0.7H28c0.4,0,0.6,0.3,0.6,0.7v3.4
		C28.6,30.8,28.4,31.1,28,31.1z M25.1,29.9h2.2v-2.2h-2.2V29.9z"/>
</g>
<g>
	<path class="st0" d="M41.8,17.4h-3.2c-0.4,0-0.6-0.3-0.6-0.7v-3.4c0-0.4,0.3-0.7,0.6-0.7h3.2c0.4,0,0.6,0.3,0.6,0.7v3.4
		C42.4,17,42.1,17.4,41.8,17.4z M39.2,16h2.1v-2.2h-2.1V16z"/>
</g>
<g>
	<path class="st0" d="M10.4,40.1c-2.1,0-3.9-1.8-3.9-4c0-2.2,1.7-4,3.9-4s4,1.8,4,4C14.5,38.3,12.6,40.1,10.4,40.1z M10.4,33.2
		c-1.4,0-2.6,1.3-2.6,2.9s1.2,2.9,2.6,2.9c1.8,0,2.9-1.4,2.9-2.9C13.2,34.6,12.1,33.2,10.4,33.2z"/>
</g>
<ellipse class="st0" cx="10.4" cy="36" rx="1.4" ry="1.4"/>
<g>
	<g>
		<polyline class="st1" points="53.8,34.7 53.8,42.6 46,42.6 		"/>
		<polyline class="st1" points="34.1,42.6 26.3,42.6 26.3,34.7 		"/>
		<polyline class="st1" points="26.3,22.8 26.3,15 34.1,15 		"/>
		<polyline class="st1" points="46,15 53.8,15 53.8,22.8 		"/>
	</g>
</g>
</svg>
