<?xml version="1.0" encoding="utf-8"?>
<!-- Generator: Adobe Illustrator 21.0.0, SVG Export Plug-In . SVG Version: 6.00 Build 0)  -->
<svg version="1.1" id="Layer_1" xmlns="http://www.w3.org/2000/svg" xmlns:xlink="http://www.w3.org/1999/xlink" x="0px" y="0px"
	 viewBox="0 0 70 70" style="enable-background:new 0 0 70 70;" xml:space="preserve">
<style type="text/css">
	.st0{fill:#F3E205;}
	.st1{fill:#F3E205;stroke:#F3E207;stroke-width:2;stroke-miterlimit:10;}
	.st2{fill:#F3E205;stroke:#F3E207;stroke-width:0.5;stroke-miterlimit:10;}
</style>
<path class="st0" d="M11.7,29.5c0.6,0,1.1-0.5,1.1-1.2c0-0.2,0-0.4,0-0.6c1.8-0.5,3.1-2.1,3.1-4c0-2.3-1.9-4.3-4.3-4.3
	c-2.3,0-4.3,1.9-4.3,4.3c0,1.9,1.3,3.5,3.1,4.1c0,0.3,0,0.4,0.1,0.7C10.6,29.1,11,29.5,11.7,29.5C11.6,29.5,11.6,29.5,11.7,29.5z
	 M11.5,21.6c1.1,0,1.9,0.9,1.9,1.9s-0.9,1.9-1.9,1.9s-1.9-0.9-1.9-1.9S10.4,21.6,11.5,21.6z"/>
<path class="st0" d="M13.7,35.1c-0.3-0.7-0.4-1.6-0.5-2.5c-0.1-0.6-0.7-1-1.2-0.9c-0.6,0.1-1,0.7-0.9,1.2c0.2,1,0.4,1.9,0.6,2.7
	c0.2,0.4,0.6,0.8,1.1,0.8c0.1,0,0.2,0,0.4-0.1C13.7,36.2,13.9,35.6,13.7,35.1z"/>
<path class="st1" d="M17.4,39.5c-0.6-0.2-1.2-0.5-1.8-1.1c-0.4-0.4-1.2-0.4-1.6,0c-0.4,0.4-0.4,1.2,0,1.6c0.8,0.8,1.8,1.3,2.7,1.6
	c0.1,0,0.2,0,0.3,0c0.5,0,1-0.4,1.1-0.8C18.3,40.3,17.9,39.7,17.4,39.5z"/>
<path class="st0" d="M34.2,27.7c-0.4-0.4-1.2-0.4-1.6,0.1c-0.5,0.5-1.1,1.2-1.8,2c-0.4,0.4-0.4,1.2,0.2,1.6c0.2,0.2,0.4,0.3,0.7,0.3
	c0.4,0,0.6-0.2,0.9-0.4c0.7-0.8,1.2-1.4,1.7-1.9C34.6,28.9,34.6,28.2,34.2,27.7z"/>
<path class="st1" d="M28,33.2c-0.6,0.8-1.2,1.4-1.8,1.9c-0.4,0.4-0.4,1.2,0,1.6C26.4,37,26.8,37,27,37s0.6-0.1,0.8-0.4
	c0.5-0.6,1.2-1.2,1.9-2c0.4-0.4,0.4-1.2-0.1-1.6C29.1,32.7,28.4,32.8,28,33.2z"/>
<path class="st0" d="M43.9,23.5c-0.5-0.3-1.2-0.1-1.5,0.5c-0.3,0.5-0.1,1.2,0.5,1.5c0.5,0.3,1.1,0.8,1.5,1.4
	c0.2,0.4,0.5,0.5,0.9,0.5c0.2,0,0.4-0.1,0.6-0.2c0.5-0.4,0.6-1,0.4-1.5C45.6,24.6,44.8,23.9,43.9,23.5z"/>
<path class="st2" d="M59.7,30V7.6c0-0.4-0.2-0.7-0.5-0.9c-0.3-0.2-0.7-0.3-1.1-0.1l-18.4,7.8L21.3,6.6l0,0c0,0-0.1,0-0.2,0H21
	c-0.1,0-0.1,0-0.2,0s-0.1,0-0.2,0h-0.1c-0.1,0-0.1,0-0.2,0l0,0l-18.9,8c-0.4,0.2-0.7,0.5-0.7,1.1v39.1c0,0.4,0.2,0.7,0.5,0.9
	c0.2,0.1,0.4,0.2,0.6,0.2c0.2,0,0.3,0,0.4-0.1l18.4-7.8l15,6.3c3,5.5,8.9,9.3,15.6,9.3c9.8,0,17.8-8,17.8-17.8
	C69.2,39,65.4,33.1,59.7,30z M40.8,16.3l16.6-7v19.8c-1.9-0.7-4-1.1-6.1-1.1c-4,0-7.6,1.3-10.6,3.5L40.8,16.3L40.8,16.3z M49.3,50.6
	c-0.4-0.2-0.9-0.4-1.2-0.7s-0.7-0.5-0.9-0.7c0.1-0.7,0-1.6-0.4-2.6c-0.6-1.8-0.9-3-0.8-4.6c0.3-2.4,2.6-4.5,5.1-4.5h0.1
	c2.6,0,5,2,5.1,4.5c0.2,1.6-0.2,2.8-0.8,4.6l0,0c-0.2,0.4-0.3,0.9-0.4,1.3c-0.1,0.4-0.1,0.8,0,1.2l0,0c-1.3,1.2-2.7,1.8-4.2,1.8
	c-0.1,0-0.1,0-0.2,0C50.6,51,50,50.9,49.3,50.6z M39.5,55.7L39.5,55.7c-0.1-0.2,0-0.3,0-0.3c0.3-0.4,0.6-0.8,1.1-1.2
	c0.1-0.1,0.2-0.1,0.2-0.2c0.9-0.6,1.9-1.2,3-1.6c0.5-0.3,1.1-0.5,1.6-0.8c0.3-0.2,0.5-0.4,0.7-0.5c0.2,0.2,0.4,0.4,0.6,0.4
	c0.4,0.3,0.7,0.4,1.2,0.7c0.9,0.4,2,0.8,3.3,0.9c0.1,0,0.1,0,0.2,0c1.8,0,3.5-0.7,5.1-2c0.2,0.2,0.4,0.4,0.7,0.5
	c0.5,0.3,1.1,0.5,1.6,0.8c1.7,0.8,3.4,1.6,4.3,2.9c0.1,0.1,0.1,0.2,0.2,0.3c-2.8,3.4-7.2,5.6-12,5.6C46.7,61.3,42.4,59.2,39.5,55.7
	C39.5,55.8,39.5,55.7,39.5,55.7z M64.7,53.8c-1.2-1.6-3.1-2.5-4.9-3.3c-0.5-0.3-1.1-0.4-1.5-0.7c-0.4-0.3-0.8-0.5-0.7-1.5
	c0-0.3,0.1-0.5,0.3-0.9c0.1-0.2,0.1-0.3,0.2-0.4c0.3-0.7,0.4-1.3,0.5-1.9c0.2-1.1,0.3-2,0.2-3.2c0-0.4-0.1-0.6-0.2-1
	c-0.2-0.9-0.6-1.6-1.1-2.3c-1.3-1.9-3.6-3.2-6.1-3.2h-0.1c-1.5,0-2.9,0.4-4.2,1.3c-0.7,0.5-1.4,1.2-1.9,1.9c-0.7,1-1.2,2.1-1.3,3.4
	c-0.3,2.2,0.3,3.9,0.9,5.6c0.6,1.7,0.1,2.1-0.4,2.4c-0.4,0.3-1,0.4-1.5,0.7c-0.6,0.4-1.3,0.6-2,1c-0.4,0.2-0.7,0.4-1.1,0.7
	c-0.4,0.3-0.8,0.5-1.1,0.9c-0.2,0.2-0.4,0.4-0.5,0.6c-0.3-0.4-0.4-0.8-0.6-1.2c-1-2-1.6-4.3-1.6-6.7c0-3.3,1-6.3,2.7-8.8
	c0.4-0.5,0.7-1,1.1-1.4s0.7-0.8,1.1-1.2c1.4-1.3,3.1-2.4,5-3.1c0.7-0.3,1.4-0.5,2.1-0.7c1.2-0.3,2.3-0.4,3.5-0.4
	c2.1,0,4.3,0.4,6.1,1.2c0.4,0.2,0.7,0.4,1.1,0.5c0.4,0.2,0.7,0.4,1.1,0.6c4.3,2.7,7.3,7.6,7.3,13.1C67,48.7,66.2,51.5,64.7,53.8z
	 M21.9,46v-4.9c0.8-0.4,1.6-0.8,2.5-1.3c0.5-0.4,0.6-1.1,0.3-1.5c-0.4-0.5-1.1-0.6-1.5-0.3c-0.4,0.3-0.8,0.5-1.2,0.7V9.2l16.6,7v7.1
	c-0.8,0.3-1.7,0.7-2.5,1.3c-0.5,0.4-0.6,1.1-0.3,1.5c0.2,0.4,0.5,0.4,0.9,0.4c0.2,0,0.4-0.1,0.6-0.2c0.4-0.3,0.8-0.5,1.2-0.7v7.7
	c-3.1,3.2-5,7.5-5,12.3c0,1.9,0.4,3.8,0.9,5.6L21.9,46z M3,16.3l16.6-7v36.8L3,53.1C3,53.1,3,16.3,3,16.3z"/>
</svg>
