<?xml version="1.0" encoding="utf-8"?>
<!-- Generator: Adobe Illustrator 21.0.0, SVG Export Plug-In . SVG Version: 6.00 Build 0)  -->
<svg version="1.1" id="Layer_1" xmlns="http://www.w3.org/2000/svg" xmlns:xlink="http://www.w3.org/1999/xlink" x="0px" y="0px"
	 viewBox="0 0 70 70" style="enable-background:new 0 0 70 70;" xml:space="preserve">
<style type="text/css">
	.st0{fill:#F3E207;}
</style>
<g id="XMLID_821_">
	<g id="XMLID_464_">
		<path id="XMLID_465_" class="st0" d="M15.5,42.5c-0.3,0-0.7,0.1-0.9,0.4s-0.4,0.6-0.4,0.9s0.1,0.7,0.4,0.9
			c0.2,0.2,0.6,0.4,0.9,0.4c0.3,0,0.7-0.1,0.9-0.4c0.2-0.2,0.4-0.6,0.4-0.9s-0.1-0.7-0.4-0.9C16.2,42.6,15.9,42.5,15.5,42.5z"/>
		<path id="XMLID_468_" class="st0" d="M65.7,42.5V4.3c0-0.7-0.6-1.3-1.3-1.3h-59C4.8,3,4.2,3.6,4.2,4.3v38.2
			c-0.7,0-1.3,0.6-1.3,1.3v7C3,51.4,3.6,52,4.2,52h19l-7.2,13.2c-0.2,0.4-0.2,0.9,0,1.2c0.2,0.4,0.6,0.6,1.1,0.6h6.6
			c0.5,0,0.9-0.2,1.1-0.7l5.9-10.7v10.1c0,0.7,0.6,1.3,1.3,1.3h6c0.7,0,1.3-0.6,1.3-1.3V55.6l5.9,10.7c0.2,0.4,0.6,0.7,1.1,0.7h6.6
			c0.4,0,0.9-0.2,1.1-0.6c0.2-0.4,0.2-0.9,0-1.2L46.7,52h19c0.7,0,1.3-0.6,1.3-1.3v-7C67,43.1,66.4,42.5,65.7,42.5z M23.1,64.5h-3.8
			L26.1,52h3.8L23.1,64.5z M36.8,64.5h-3.5V52h3.5V64.5z M50.7,64.5h-3.8L40.1,52h3.8L50.7,64.5z M64.5,49.5h-59V45h4.4
			c0.7,0,1.3-0.6,1.3-1.3s-0.6-1.3-1.3-1.3H6.7v-37h56.5v37H20.5c-0.7,0-1.3,0.6-1.3,1.3s0.6,1.3,1.3,1.3h44V49.5z"/>
		<path id="XMLID_474_" class="st0" d="M21.8,31.5c0-2.6-2.1-4.8-4.8-4.8c-2.6,0-4.8,2.1-4.8,4.8c0,2.6,2.1,4.8,4.8,4.8
			C19.6,36.3,21.8,34.1,21.8,31.5z M17,33.8c-1.2,0-2.3-1-2.3-2.3c0-1.2,1-2.3,2.3-2.3c1.2,0,2.3,1,2.3,2.3S18.2,33.8,17,33.8z"/>
		<path id="XMLID_475_" class="st0" d="M57,30.3H32c-0.7,0-1.3,0.6-1.3,1.3c0,0.7,0.6,1.3,1.3,1.3h25c0.7,0,1.3-0.6,1.3-1.3
			C58.2,30.8,57.7,30.3,57,30.3z"/>
		<path id="XMLID_476_" class="st0" d="M26.6,32.8c0.3,0,0.7-0.1,0.9-0.4c0.2-0.2,0.4-0.6,0.4-0.9s-0.1-0.7-0.4-0.9
			c-0.2-0.2-0.6-0.4-0.9-0.4c-0.3,0-0.7,0.1-0.9,0.4c-0.2,0.2-0.4,0.6-0.4,0.9s0.1,0.7,0.4,0.9C26,32.6,26.3,32.8,26.6,32.8z"/>
		<path id="XMLID_479_" class="st0" d="M17,22.3c2.6,0,4.8-2.1,4.8-4.8s-2.1-4.8-4.8-4.8c-2.6,0-4.8,2.1-4.8,4.8S14.4,22.3,17,22.3z
			 M17,15.3c1.2,0,2.3,1,2.3,2.3s-1,2.3-2.3,2.3c-1.2,0-2.3-1-2.3-2.3C14.7,16.3,15.8,15.3,17,15.3z"/>
		<path id="XMLID_480_" class="st0" d="M26.6,18.8H57c0.7,0,1.3-0.6,1.3-1.3s-0.6-1.3-1.3-1.3H26.6c-0.7,0-1.3,0.6-1.3,1.3
			S25.9,18.8,26.6,18.8z"/>
	</g>
</g>
</svg>
