<?xml version="1.0" encoding="utf-8"?>
<!-- Generator: Adobe Illustrator 21.0.0, SVG Export Plug-In . SVG Version: 6.00 Build 0)  -->
<svg version="1.1" id="Layer_1" xmlns="http://www.w3.org/2000/svg" xmlns:xlink="http://www.w3.org/1999/xlink" x="0px" y="0px"
	 viewBox="0 0 70 70" style="enable-background:new 0 0 70 70;" xml:space="preserve">
<style type="text/css">
	.st0{fill:#F3E205;stroke:#F3E205;stroke-width:0.25;stroke-miterlimit:10;}
</style>
<g>
	<path class="st0" d="M63,42H50.7c-1-0.6-2.1-1.2-3.4-1.7c-0.5-0.2-1.1,0.1-1.3,0.6l0,0c-0.2,0.5,0.1,1.1,0.6,1.3
		C51.3,44,54,46.9,54,50c0,5.4-8.7,10-19,10s-19-4.6-19-10c0-3,2.7-5.9,7.3-7.8c0.5-0.2,0.8-0.8,0.6-1.3l0,0
		c-0.2-0.5-0.8-0.8-1.3-0.6c-1.2,0.5-2.3,1.1-3.2,1.7H7c-1.7,0-3,1.3-3,3v18c0,1.7,1.3,3,3,3h56c1.7,0,3-1.3,3-3V45
		C66,43.3,64.7,42,63,42z M56,50c0-2.2-1-4.2-2.8-6H63c0.6,0,1,0.4,1,1v15H46.8C52.4,57.9,56,54.2,56,50z M7,44h9.8
		C15,45.8,14,47.8,14,50c0,4.2,3.6,7.9,9.2,10H6V45C6,44.4,6.4,44,7,44z M63,64H7c-0.6,0-1-0.4-1-1v-1h58v1C64,63.6,63.6,64,63,64z"
		/>
	<path class="st0" d="M18,50c0,3.8,7,8,17,8s17-4.2,17-8c0-2.3-2.6-4.7-6.7-6.3c-0.5-0.2-1.1,0.1-1.3,0.6l0,0
		c-0.2,0.5,0.1,1.1,0.6,1.2C48.1,47,50,48.8,50,50c0,2.1-5.7,6-15,6s-15-3.9-15-6c0-1.2,1.9-3,5.4-4.4c0.5-0.2,0.7-0.7,0.6-1.2l0,0
		c-0.2-0.5-0.8-0.8-1.3-0.6C20.6,45.3,18,47.7,18,50z"/>
	<path class="st0" d="M25,34L25,34c0.5-0.2,1.1,0,1.3,0.5l6.2,14.2c0.2,0.5,0,1.1-0.5,1.3l0,0c-0.5,0.2-1.1,0-1.3-0.5l-6.2-14.2
		C24.3,34.8,24.5,34.2,25,34z"/>
	<path class="st0" d="M38,50c-0.5-0.2-0.7-0.8-0.5-1.3l6.2-14.2c0.2-0.5,0.8-0.7,1.3-0.5l0,0c0.5,0.2,0.7,0.8,0.5,1.3l-6.2,14.2
		C39.1,50,38.5,50.2,38,50L38,50z"/>
	<path class="st0" d="M35,34L35,34c0.6,0,1,0.4,1,1v14c0,0.6-0.4,1-1,1l0,0c-0.6,0-1-0.4-1-1V35C34,34.4,34.4,34,35,34z"/>
	<path class="st0" d="M35,32c7.7,0,14-6.3,14-14S42.7,4,35,4s-14,6.3-14,14S27.3,32,35,32z M47,18c0,0.7-0.1,1.3-0.2,2H40
		c-0.6,0-1-0.4-1-1s0.4-1,1-1c1.7,0,3-1.3,3-3s-1.3-3-3-3h-3c-0.6,0-1-0.4-1-1s0.4-1,1-1h6.9C45.8,12.1,47,14.9,47,18z M35,6
		c2.4,0,4.7,0.7,6.6,2H37c-1.7,0-3,1.3-3,3s1.3,3,3,3h3c0.6,0,1,0.4,1,1s-0.4,1-1,1c-1.7,0-3,1.3-3,3s1.3,3,3,3h6.3
		c-1.7,4.7-6.1,8-11.3,8c-2.4,0-4.7-0.7-6.6-2H33c1.7,0,3-1.3,3-3s-1.3-3-3-3h-4c-0.6,0-1-0.4-1-1s0.4-1,1-1h1c1.7,0,3-1.3,3-3
		s-1.3-3-3-3h-6.3C25.4,9.3,29.8,6,35,6z M23.2,16H30c0.6,0,1,0.4,1,1s-0.4,1-1,1h-1c-1.7,0-3,1.3-3,3s1.3,3,3,3h4c0.6,0,1,0.4,1,1
		s-0.4,1-1,1h-6.9c-1.9-2.1-3.1-4.9-3.1-8C23,17.3,23.1,16.7,23.2,16z"/>
	<rect x="60" y="56" class="st0" width="2" height="2"/>
	<rect x="56" y="56" class="st0" width="2" height="2"/>
	<rect x="12" y="56" class="st0" width="2" height="2"/>
	<rect x="8" y="56" class="st0" width="2" height="2"/>
	<path class="st0" d="M49.9,28L49.9,28c0.5,0.3,1.1,0.2,1.4-0.3c0,0,0-0.1,0.1-0.1c0.3-0.5,0.1-1.1-0.4-1.4l0,0
		c-0.5-0.2-1-0.1-1.3,0.4c0,0,0,0,0,0C49.4,27.1,49.5,27.7,49.9,28z"/>
	<path class="st0" d="M47.4,9.4c1,0.7,1.8,0.7,2.5,0.4c1.4,2.5,2.1,5.3,2.1,8.2c0,1.8-0.3,3.6-0.8,5.3c-0.2,0.5,0.1,1.1,0.6,1.3v0
		c0.5,0.2,1.1-0.1,1.3-0.6C53.7,22,54,20,54,18c0-3.3-0.9-6.5-2.5-9.4C52,7.9,52.2,7,51.8,6c-0.3-0.9-1.1-1.7-2-1.9
		c-2-0.5-3.7,0.9-3.8,2.7C45.9,7.9,46.5,8.8,47.4,9.4z M49,6c0.6,0,1,0.4,1,1s-0.4,1-1,1s-1-0.4-1-1S48.4,6,49,6z"/>
	<path class="st0" d="M20.1,8L20.1,8c-0.5-0.3-1.1-0.2-1.4,0.3c0,0,0,0.1-0.1,0.1c-0.3,0.5-0.1,1.1,0.4,1.4l0,0
		c0.5,0.2,1,0.1,1.3-0.4c0,0,0,0,0,0C20.6,8.9,20.5,8.3,20.1,8z"/>
	<path class="st0" d="M18,29c0,2,1.9,3.5,4,2.9c0.9-0.3,1.6-1,1.9-1.9c0.6-2.1-0.9-4-2.9-4c-0.3,0-0.6,0.1-0.9,0.2
		C18.7,23.7,18,20.9,18,18c0-1.8,0.3-3.6,0.8-5.3c0.2-0.5-0.1-1.1-0.6-1.3l0,0c-0.5-0.2-1.1,0.1-1.3,0.6C16.3,14,16,16,16,18
		c0,3.3,0.9,6.5,2.5,9.4C18.2,27.9,18,28.4,18,29z M22,29c0,0.6-0.4,1-1,1s-1-0.4-1-1s0.4-1,1-1S22,28.4,22,29z"/>
</g>
</svg>
